<svg width="12" height="10" viewBox="0 0 12 10" fill="none" xmlns="http://www.w3.org/2000/svg">
<path d="M2.4599 1.29002C2.2716 1.09641 2.01409 0.985539 1.74404 0.981788C1.47399 0.978037 1.21351 1.08172 1.0199 1.27002C0.826292 1.45833 0.715417 1.71583 0.711666 1.98588C0.707915 2.25593 0.811596 2.51641 0.9999 2.71002L3.3399 5.00002L0.9999 7.29002C0.906171 7.38298 0.831777 7.49359 0.781008 7.61544C0.73024 7.7373 0.704102 7.86801 0.704102 8.00002C0.704102 8.13203 0.73024 8.26274 0.781008 8.3846C0.831777 8.50646 0.906171 8.61706 0.9999 8.71002C1.09286 8.80375 1.20346 8.87814 1.32532 8.92891C1.44718 8.97968 1.57789 9.00582 1.7099 9.00582C1.84191 9.00582 1.97262 8.97968 2.09448 8.92891C2.21634 8.87814 2.32694 8.80375 2.4199 8.71002L5.4199 5.71002C5.51363 5.61706 5.58802 5.50646 5.63879 5.3846C5.68956 5.26274 5.7157 5.13203 5.7157 5.00002C5.7157 4.86801 5.68956 4.7373 5.63879 4.61544C5.58802 4.49359 5.51363 4.38298 5.4199 4.29002L2.4599 1.29002ZM10.9599 4.29002L7.9599 1.29002C7.7716 1.10172 7.5162 0.99593 7.2499 0.99593C6.9836 0.99593 6.7282 1.10172 6.5399 1.29002C6.3516 1.47833 6.24581 1.73372 6.24581 2.00002C6.24581 2.26632 6.3516 2.52172 6.5399 2.71002L8.8399 5.00002L6.5399 7.29002C6.44617 7.38298 6.37178 7.49359 6.32101 7.61544C6.27024 7.7373 6.2441 7.86801 6.2441 8.00002C6.2441 8.13203 6.27024 8.26274 6.32101 8.3846C6.37178 8.50646 6.44617 8.61706 6.5399 8.71002C6.63286 8.80375 6.74346 8.87814 6.86532 8.92891C6.98718 8.97968 7.11789 9.00582 7.2499 9.00582C7.38191 9.00582 7.51262 8.97968 7.63448 8.92891C7.75634 8.87814 7.86694 8.80375 7.9599 8.71002L10.9599 5.71002C11.0563 5.61973 11.1338 5.51123 11.1881 5.3908C11.2423 5.27037 11.2721 5.14039 11.2759 5.00836C11.2796 4.87633 11.2571 4.74488 11.2097 4.62158C11.1624 4.49829 11.0911 4.3856 10.9999 4.29002H10.9599Z" fill="#0B0B0B"/>
</svg>
